<svg width="200" height="200" viewBox="0 0 200 200" fill="none" xmlns="http://www.w3.org/2000/svg">
<path d="M100 197C153.572 197 197 153.572 197 100C197 46.4284 153.572 3 100 3C46.4284 3 3 46.4284 3 100C3 153.572 46.4284 197 100 197Z" fill="url(#paint0_linear_2_25)"/>
<path d="M142.45 138.65L109.65 59.35C107.8 55.25 105.05 53.25 101.425 53.25H98.525C94.9 53.25 92.15 55.25 90.3 59.35L76.025 93.9H65.225C62 93.925 59.375 96.525 59.35 99.775V99.85C59.375 103.075 62 105.7 65.225 105.725H71.025L57.4 138.65C57.15 139.375 57 140.125 57 140.9C57 142.75 57.575 144.2 58.6 145.325C59.625 146.45 61.1 147 62.95 147C64.175 146.975 65.35 146.6 66.325 145.875C67.375 145.15 68.1 144.1 68.675 142.9L83.675 105.7H94.075C97.3 105.675 99.925 103.075 99.95 99.825V99.675C99.925 96.45 97.3 93.825 94.075 93.8H88.525L99.975 65.275L131.175 142.875C131.75 144.075 132.475 145.125 133.525 145.85C134.5 146.575 135.7 146.95 136.9 146.975C138.75 146.975 140.2 146.425 141.25 145.3C142.3 144.175 142.85 142.725 142.85 140.875C142.875 140.125 142.75 139.35 142.45 138.65Z" fill="white"/>
<defs>
<linearGradient id="paint0_linear_2_25" x1="172.322" y1="39.1466" x2="27.9858" y2="160.591" gradientUnits="userSpaceOnUse">
<stop stop-color="#B6509E"/>
<stop offset="1" stop-color="#2EBAC6"/>
</linearGradient>
</defs>
</svg>
