<svg width="200" height="200" viewBox="0 0 200 200" fill="none" xmlns="http://www.w3.org/2000/svg">
<g clip-path="url(#clip0_2_36)">
<path d="M100 200C155.23 200 200 155.23 200 100C200 44.77 155.23 0 100 0C44.77 0 0 44.77 0 100C0 155.23 44.77 200 100 200Z" fill="#070A0E"/>
<path fill-rule="evenodd" clip-rule="evenodd" d="M57.77 133.53C54.78 131.7 52.95 128.45 52.95 124.95V105.41C52.95 103.09 54.84 101.21 57.16 101.22C57.9 101.22 58.63 101.42 59.27 101.79L103.36 127.5C105.94 129 107.53 131.76 107.53 134.75V154.99C107.54 157.77 105.29 160.03 102.51 160.03C101.58 160.03 100.66 159.77 99.87 159.29L57.77 133.53ZM123.49 96.44C126.07 97.94 127.65 100.71 127.66 103.69V144.77C127.66 145.98 127.01 147.1 125.95 147.69L116.3 153.12C116.18 153.19 116.05 153.24 115.91 153.28V130.47C115.91 127.52 114.36 124.78 111.82 123.26L73.1 100.1V74.35C73.1 72.03 74.99 70.15 77.31 70.16C78.05 70.16 78.78 70.36 79.42 70.73L123.49 96.44ZM142.79 66.1C145.38 67.6 146.97 70.37 146.97 73.36V133.36C146.96 134.59 146.28 135.72 145.2 136.31L136.05 141.25V99.48C136.05 96.53 134.5 93.8 131.98 92.28L92.4 68.54V44.12C92.4 43.38 92.6 42.65 92.96 42.01C94.13 40.01 96.7 39.33 98.7 40.49L142.79 66.1Z" fill="#00D395"/>
</g>
<defs>
<clipPath id="clip0_2_36">
<rect width="200" height="200" fill="white"/>
</clipPath>
</defs>
</svg>
