<svg width="200" height="200" viewBox="0 0 200 200" fill="none" xmlns="http://www.w3.org/2000/svg">
<g clip-path="url(#clip0_7_4)">
<path d="M180 0H20C8.95431 0 0 8.95431 0 20V180C0 191.046 8.95431 200 20 200H180C191.046 200 200 191.046 200 180V20C200 8.95431 191.046 0 180 0Z" fill="#1C68F3"/>
<path fill-rule="evenodd" clip-rule="evenodd" d="M172 72V112H52V112L46.8371 112.001C52.3015 136.271 73.9881 154.4 99.909 154.4C121.339 154.4 139.874 142.009 148.742 124.001L172 124V157.6C172 165.553 165.553 172 157.6 172H42.4C34.4471 172 28 165.553 28 157.6V72H172ZM134.931 124.001C127.294 135.166 114.457 142.493 99.909 142.493C85.3609 142.493 72.5241 135.166 64.8874 124.001H134.931ZM69.2 81.6C57.9152 81.6 48.5795 89.9447 47.0268 100.8L59.3015 100.8C60.6512 96.6221 64.5727 93.6 69.2 93.6C73.8273 93.6 77.7488 96.6221 79.0985 100.8L91.3732 100.8C89.8205 89.9447 80.4848 81.6 69.2 81.6V81.6ZM130.8 81.6C119.515 81.6 110.18 89.9447 108.627 100.8L120.902 100.8C122.251 96.6221 126.173 93.6 130.8 93.6C135.427 93.6 139.349 96.6221 140.698 100.8L152.973 100.8C151.42 89.9447 142.085 81.6 130.8 81.6ZM157.6 28C165.553 28 172 34.4471 172 42.4V60H28V42.4C28 34.4471 34.4471 28 42.4 28H157.6Z" fill="white"/>
</g>
<defs>
<clipPath id="clip0_7_4">
<rect width="200" height="200" fill="white"/>
</clipPath>
</defs>
</svg>
