<svg width="201" height="200" viewBox="0 0 201 200" fill="none" xmlns="http://www.w3.org/2000/svg">
<g clip-path="url(#clip0_2_30)">
<path fill-rule="evenodd" clip-rule="evenodd" d="M36.142 31.25C32.9716 15 45.653 0 62.1388 0C76.7224 0 88.7697 11.875 88.7697 26.25V58.75C92.5741 58.75 96.3785 58.125 100.183 58.125C103.987 58.125 107.158 58.125 110.962 58.75V26.25C110.962 11.875 123.009 0 137.593 0C154.079 0 166.76 15 164.224 31.25L157.249 69.375C181.978 80 201 98.75 201 121.875V136.25C201 155.625 188.319 171.875 169.931 182.5C151.543 193.75 127.448 200 100.183 200C72.918 200 48.8233 193.75 30.4353 182.5C12.6814 171.875 0 155.625 0 136.25V121.875C0 98.75 18.388 80 43.1167 69.375L36.142 31.25ZM147.738 74.375L155.981 29.375C157.883 18.125 149.64 7.5 137.593 7.5C127.448 7.5 119.205 15.625 119.205 25.625V66.875C116.669 66.25 113.498 66.25 110.962 66.25C107.158 66.25 103.987 65.625 100.183 65.625C96.3785 65.625 92.5741 65.625 88.7697 66.25C86.2334 66.25 83.0631 66.875 80.5268 66.875V26.25C80.5268 16.25 72.2839 8.125 62.1388 8.125C50.7256 8.125 41.8486 18.75 44.3849 30L52.6278 75C25.9968 85 8.2429 102.5 8.2429 122.5V136.875C8.2429 167.5 49.4574 192.5 100.183 192.5C150.909 192.5 192.123 167.5 192.123 136.875V122.5C192.757 101.875 175.003 84.375 147.738 74.375Z" fill="#633001"/>
<path d="M192.757 136.25C192.757 166.875 151.543 191.875 100.817 191.875C50.0915 191.875 8.87697 166.875 8.87697 136.25V121.875H193.391V136.25H192.757Z" fill="#FEDC90"/>
<path fill-rule="evenodd" clip-rule="evenodd" d="M44.3849 30C41.8486 18.75 50.7256 8.125 62.1388 8.125C72.2839 8.125 80.5268 16.25 80.5268 26.25V67.5C86.8675 66.875 93.2082 66.25 100.183 66.25C106.524 66.25 112.864 66.875 119.205 67.5V26.25C119.205 16.25 127.448 8.125 137.593 8.125C149.006 8.125 157.883 18.75 155.981 30L147.738 75C174.369 85 192.757 102.5 192.757 122.5C192.757 153.125 151.543 178.125 100.817 178.125C50.0915 178.125 8.87697 153.125 8.87697 122.5C8.87697 102.5 26.6309 85 53.2618 75L44.3849 30Z" fill="#D1884F"/>
<path d="M74.8202 118.125C74.8202 126.25 70.3817 133.125 64.6751 133.125C58.9685 133.125 54.53 126.25 54.53 118.125C54.53 110 58.9685 103.125 64.6751 103.125C70.3817 103.125 74.8202 110 74.8202 118.125Z" fill="#633001"/>
<path d="M145.202 118.125C145.202 126.25 140.763 133.125 135.057 133.125C129.35 133.125 124.912 126.25 124.912 118.125C124.912 110 129.35 103.125 135.057 103.125C140.763 103.125 145.202 110 145.202 118.125Z" fill="#633001"/>
</g>
<defs>
<clipPath id="clip0_2_30">
<rect width="201" height="200" fill="white"/>
</clipPath>
</defs>
</svg>
