<svg width="1440" height="1440" viewBox="0 0 1440 1440" fill="none" xmlns="http://www.w3.org/2000/svg">
<rect width="1440" height="1440" fill="#E3E3E3"/>
<path d="M237 797.379H282.424V741.198H315.278C363.558 741.198 394.698 712.676 394.698 668.596C394.698 624.227 363.558 595.705 315.278 595.705H237V797.379ZM282.138 701.728V635.752H311.564C335.276 635.752 348.417 647.852 348.417 668.884C348.417 689.915 335.276 701.728 311.564 701.728H282.138Z" fill="black"/>
<path d="M478.482 801.412C528.191 801.412 562.473 768.856 562.473 721.607C562.473 674.646 528.191 642.09 478.482 642.09C428.487 642.09 394.205 674.646 394.205 721.607C394.205 768.856 428.487 801.412 478.482 801.412ZM437.058 721.607C437.058 696.83 454.199 679.544 478.482 679.544C502.765 679.544 519.621 696.83 519.621 721.607C519.621 746.384 502.765 763.671 478.482 763.671C454.199 763.671 437.058 746.384 437.058 721.607Z" fill="black"/>
<path d="M570.525 797.379H613.949V584.181H570.525V797.379Z" fill="black"/>
<path d="M640.721 855H661.004C695.858 855 710.428 846.357 722.712 815.241L789.562 646.123H742.996L722.998 701.152L709.285 739.758L669.003 646.123H621.008L688.43 792.481L686.716 797.667C681.573 812.648 675.574 817.258 657.862 817.258H640.721V855Z" fill="black"/>
<path d="M887.387 801.412C932.24 801.412 963.951 768.568 963.951 721.607C963.951 675.222 932.24 642.09 887.387 642.09C868.818 642.09 852.534 647.852 839.964 657.936V584.181H796.539V797.379H828.822L833.678 780.093C847.106 793.633 865.675 801.412 887.387 801.412ZM838.249 721.607C838.249 697.118 855.39 679.544 879.674 679.544C904.243 679.544 921.098 697.118 921.098 721.607C921.098 746.384 904.243 763.671 879.674 763.671C855.39 763.671 838.249 746.384 838.249 721.607Z" fill="black"/>
<path d="M972.223 797.379H1015.65V646.123H972.223V797.379Z" fill="black"/>
<path d="M1112.04 797.379H1139.47V753.931H1121.47C1104.33 753.931 1096.33 750.994 1096.33 733.419V681.848H1137.47V646.123H1096.33V606.941H1062.62L1060.05 626.532C1057.76 642.09 1053.48 646.123 1037.19 646.123H1023.76V681.848H1052.9V740.046C1052.9 776.923 1074.05 797.379 1112.04 797.379Z" fill="black"/>
<path d="M972.223 627.448H1015.31V584H972.223V627.448Z" fill="black"/>
<path d="M1158.92 797.379H1202V753.931H1158.92V797.379Z" fill="black"/>
</svg>
