<svg width="200" height="200" viewBox="0 0 200 200" fill="none" xmlns="http://www.w3.org/2000/svg">
<g clip-path="url(#clip0_2_39)">
<path d="M41.6667 19.1667L196.667 125L158.333 181.667L3.33334 75L41.6667 19.1667Z" fill="url(#paint0_linear_2_39)"/>
<path d="M196.667 125C183.333 144.167 138.333 136.667 95.8333 106.667C52.5 77.5 29.1667 38.3333 41.6667 19.1667C55 -1.30221e-05 100 7.49999 142.5 37.5C185.833 65.8333 209.167 105.833 196.667 125Z" fill="url(#paint1_linear_2_39)"/>
<path d="M158.333 180.833C145 200 100 192.5 57.5 162.5C15 132.5 -9.16667 94.1667 4.16666 74.1667C17.5 55 62.5 62.5 105 92.5C147.5 122.5 170.833 161.667 158.333 180.833Z" fill="url(#paint2_linear_2_39)"/>
<path d="M196.667 125L158.333 181.667C145 200.833 100 192.5 57.5 163.333C49.1667 157.5 41.6667 151.667 34.1667 145C40 144.167 47.5 140.833 55 132.5C68.3333 118.333 75 115 80.8333 115.833C86.6667 115.833 93.3333 121.667 104.167 135.833C115 150 130 154.167 139.167 146.667C140 145.833 140.833 145.833 141.667 145C149.167 139.167 151.667 136.667 165.833 110C169.167 103.333 180.833 92.5 196.667 97.5C200.833 108.333 200.833 117.5 196.667 125Z" fill="#0E0F23"/>
<path fill-rule="evenodd" clip-rule="evenodd" d="M190.833 121.667C179.167 138.333 138.333 130 99.1666 102.5C59.1666 75 35.8333 40 47.5 23.3333C59.1666 6.66666 100 15 139.167 42.5C178.333 70 201.667 105 190.833 121.667ZM154.167 96.6667C148.333 105 128.333 100.833 108.333 87.5C89.1666 74.1667 77.5 56.6667 83.3333 48.3333C89.1666 40 109.167 44.1667 129.167 57.5C148.333 70.8333 160 88.3333 154.167 96.6667Z" fill="white"/>
<path d="M38.3333 38.3333C38.3333 37.5 37.5 36.6667 36.6667 37.5C35.8333 38.3333 35 38.3333 35 39.1667C35.8333 41.6667 36.6667 43.3333 36.6667 45C36.6667 45.8333 37.5 46.6667 38.3333 45.8333C39.1667 45.8333 40 45 39.1667 44.1667C39.1667 42.5 39.1667 40.8333 38.3333 38.3333Z" fill="white"/>
<path d="M42.5 51.6666C42.5 50.8333 41.6667 50 40.8333 50.8333C40 51.6666 40 51.6666 40 52.5C49.1667 73.3333 68.3333 95.8333 93.3333 112.5C94.1667 113.333 95 112.5 95.8333 112.5C96.6667 111.667 95.8333 110.833 95.8333 110C70 93.3333 51.6667 71.6666 42.5 51.6666Z" fill="white"/>
<path d="M143.333 133.333C142.5 133.333 141.667 133.333 141.667 134.167C141.667 135 141.667 135.833 142.5 135.833C145 136.667 148.333 137.5 150.833 138.333C151.667 138.333 152.5 138.333 152.5 137.5C152.5 136.667 152.5 135.833 151.667 135.833C149.167 135 145.833 134.167 143.333 133.333Z" fill="white"/>
<path d="M158.333 136.667C157.5 136.667 156.667 137.5 156.667 138.333C156.667 139.167 157.5 140 158.333 140C165 140.833 172.5 141.667 178.333 140.833C179.167 140.833 180 140 180 139.167C180 138.333 179.167 137.5 178.333 137.5C171.667 138.333 165 137.5 158.333 136.667Z" fill="white"/>
</g>
<defs>
<linearGradient id="paint0_linear_2_39" x1="72.035" y1="4.11916" x2="102.773" y2="109.671" gradientUnits="userSpaceOnUse">
<stop stop-color="#03B8FF"/>
<stop offset="1" stop-color="#FA52A0"/>
</linearGradient>
<linearGradient id="paint1_linear_2_39" x1="97.3483" y1="-3.25335" x2="128.088" y2="102.299" gradientUnits="userSpaceOnUse">
<stop stop-color="#03B8FF"/>
<stop offset="1" stop-color="#FA52A0"/>
</linearGradient>
<linearGradient id="paint2_linear_2_39" x1="46.8" y1="11.4675" x2="77.5392" y2="117.02" gradientUnits="userSpaceOnUse">
<stop stop-color="#03B8FF"/>
<stop offset="1" stop-color="#FA52A0"/>
</linearGradient>
<clipPath id="clip0_2_39">
<rect width="200" height="200" fill="white"/>
</clipPath>
</defs>
</svg>
