<svg width="120" height="120" viewBox="0 0 120 120" fill="none" xmlns="http://www.w3.org/2000/svg">
<path d="M42.0344 23.1049C40.9408 22.935 40.8945 22.915 41.4093 22.8358C42.3957 22.6838 44.7248 22.891 46.3299 23.2731C50.0769 24.1652 53.4865 26.4505 57.126 30.5089L58.0929 31.5872L59.476 31.3644C65.3032 30.4266 71.2311 31.1719 76.1893 33.466C77.5533 34.0971 79.7039 35.3535 79.9726 35.6764C80.0583 35.7791 80.2156 36.4416 80.3219 37.1483C80.6902 39.5933 80.5059 41.4675 79.7592 42.8672C79.3529 43.629 79.3303 43.8703 79.6034 44.5223C79.8215 45.0426 80.4294 45.4275 81.0314 45.4268C82.2636 45.4251 83.5898 43.4301 84.2042 40.6543L84.4483 39.5518L84.9319 40.1003C87.5843 43.11 89.6675 47.2146 90.0253 50.1362L90.1185 50.8978L89.6727 50.2054C88.9054 49.0138 88.1345 48.2025 87.1473 47.5483C85.3677 46.3689 83.4861 45.9677 78.503 45.7046C74.0024 45.4671 71.4552 45.0821 68.9294 44.2571C64.6322 42.8539 62.4659 40.9851 57.3613 34.2773C55.094 31.2981 53.6926 29.6496 52.2986 28.3221C49.1311 25.3058 46.0186 23.7238 42.0344 23.1049Z" fill="#FF007A"/>
<path d="M80.9878 29.757C81.1011 27.7607 81.3714 26.4437 81.9149 25.2412C82.13 24.7652 82.3316 24.3755 82.3627 24.3755C82.3938 24.3755 82.3004 24.7269 82.1549 25.1563C81.7597 26.3235 81.6949 27.9197 81.9669 29.777C82.3125 32.1335 82.5089 32.4735 84.9958 35.0192C86.1623 36.2132 87.519 37.719 88.0108 38.3655L88.905 39.5411L88.0108 38.7009C86.9171 37.6736 84.402 35.67 83.8463 35.3835C83.474 35.1915 83.4186 35.1947 83.1887 35.4238C82.9769 35.6349 82.9324 35.952 82.903 37.4514C82.8573 39.7882 82.5392 41.2882 81.7717 42.788C81.3567 43.5992 81.2911 43.4261 81.6669 42.5105C81.9473 41.8269 81.9757 41.5264 81.9737 39.264C81.9694 34.7188 81.4306 33.626 78.2709 31.754C77.4704 31.2799 76.1515 30.5959 75.3402 30.2342C74.5286 29.8725 73.8841 29.5573 73.9075 29.5339C73.997 29.4446 77.0784 30.3454 78.3186 30.8231C80.1634 31.5339 80.468 31.626 80.6921 31.5403C80.8422 31.4829 80.9148 31.0447 80.9878 29.757Z" fill="#FF007A"/>
<path d="M44.1591 37.5328C41.9386 34.4711 40.5649 29.7767 40.8622 26.2674L40.9543 25.1814L41.4595 25.2739C42.4089 25.4473 44.0453 26.0574 44.8117 26.5236C46.9146 27.8027 47.825 29.4868 48.7513 33.8115C49.0225 35.0781 49.3784 36.5115 49.5422 36.9969C49.806 37.7781 50.8023 39.6026 51.6124 40.7876C52.1959 41.6409 51.8084 42.0454 50.5185 41.9287C48.5487 41.7506 45.8804 39.9064 44.1591 37.5328Z" fill="#FF007A"/>
<path d="M78.2945 60.3201C67.9175 56.1354 64.2629 52.5032 64.2629 46.3746C64.2629 45.4727 64.294 44.7347 64.3316 44.7347C64.3694 44.7347 64.771 45.0324 65.2238 45.3962C67.328 47.0865 69.6844 47.8086 76.2077 48.7616C80.0462 49.3226 82.2063 49.7756 84.199 50.4375C90.5326 52.5412 94.4512 56.8106 95.3856 62.6257C95.6572 64.3155 95.4979 67.4841 95.0576 69.1541C94.7101 70.4732 93.6496 72.8507 93.3682 72.9418C93.2902 72.9671 93.2138 72.6679 93.1937 72.2604C93.087 70.077 91.9853 67.9511 90.1351 66.3587C88.0315 64.5482 85.205 63.1067 78.2945 60.3201Z" fill="#FF007A"/>
<path d="M71.0097 62.0584C70.8796 61.2836 70.6542 60.294 70.5085 59.8594L70.2438 59.0692L70.7356 59.6222C71.4161 60.3872 71.954 61.3663 72.4098 62.6702C72.7576 63.6654 72.7968 63.9613 72.7942 65.5787C72.7915 67.1664 72.7481 67.4992 72.4269 68.3949C71.9203 69.8076 71.2916 70.8092 70.2367 71.8843C68.3412 73.8165 65.9042 74.8862 62.3875 75.33C61.7761 75.4071 59.9944 75.537 58.428 75.6186C54.4804 75.8241 51.8823 76.2489 49.5478 77.07C49.2122 77.1881 48.9125 77.2597 48.8821 77.2294C48.7876 77.1352 50.3772 76.1861 51.6901 75.5527C53.5412 74.6597 55.3839 74.1724 59.5127 73.4837C61.5523 73.1434 63.6586 72.7307 64.1935 72.5664C69.2443 71.0154 71.8405 67.0129 71.0097 62.0584Z" fill="#FF007A"/>
<path d="M75.7664 70.5197C74.3878 67.5512 74.0713 64.6853 74.8265 62.0123C74.9073 61.7267 75.0373 61.4929 75.1155 61.4929C75.1936 61.4929 75.5189 61.6691 75.8383 61.8844C76.4737 62.3128 77.7478 63.0341 81.1427 64.888C85.3788 67.2011 87.794 68.9923 89.4365 71.0387C90.8748 72.831 91.765 74.8721 92.1935 77.3612C92.436 78.7712 92.2939 82.1636 91.9327 83.5834C90.7938 88.06 88.1467 91.5761 84.3711 93.628C83.8179 93.9285 83.3214 94.1754 83.2677 94.1766C83.2139 94.1775 83.4154 93.6643 83.7155 93.0358C84.9857 90.3767 85.1302 87.7901 84.17 84.9111C83.582 83.1482 82.3833 80.9972 79.9629 77.3618C77.1488 73.1351 76.4587 72.0101 75.7664 70.5197Z" fill="#FF007A"/>
<path d="M36.7898 86.5359C40.6407 83.2794 45.4319 80.9661 49.7964 80.256C51.6773 79.9498 54.8106 80.0713 56.5524 80.5177C59.3444 81.2334 61.8417 82.8362 63.1406 84.7459C64.41 86.6122 64.9546 88.2386 65.5217 91.8574C65.7452 93.2848 65.9886 94.7182 66.0622 95.0428C66.4879 96.9182 67.3166 98.4172 68.3433 99.1701C69.9742 100.366 72.7825 100.44 75.545 99.3607C76.0139 99.1776 76.4209 99.0508 76.4496 99.0795C76.5497 99.1791 75.1588 100.112 74.1772 100.603C72.8569 101.263 71.8068 101.519 70.4115 101.519C67.8814 101.519 65.7808 100.23 64.028 97.6011C63.6831 97.0837 62.9077 95.5342 62.3051 94.158C60.4545 89.9302 59.5406 88.6423 57.3918 87.2329C55.5218 86.0064 53.1102 85.7869 51.296 86.6779C48.9128 87.8481 48.2479 90.8983 49.9548 92.8314C50.6331 93.5996 51.8982 94.2622 52.9327 94.3911C54.8679 94.6322 56.531 93.1577 56.531 91.2007C56.531 89.9301 56.0434 89.205 54.8159 88.6502C53.1392 87.8925 51.3372 88.7781 51.3458 90.3557C51.3495 91.0282 51.6419 91.4507 52.3151 91.7557C52.747 91.9515 52.7571 91.9671 52.4048 91.8937C50.8665 91.5742 50.5062 89.7169 51.743 88.4837C53.228 87.0034 56.2987 87.6566 57.3533 89.6773C57.7962 90.5259 57.8477 92.2162 57.4615 93.237C56.5969 95.5215 54.0766 96.7228 51.5197 96.069C49.779 95.6239 49.0703 95.142 46.9715 92.9767C43.3245 89.2142 41.9086 88.485 36.6509 87.663L35.6434 87.5055L36.7898 86.5359Z" fill="#FF007A"/>
<path fill-rule="evenodd" clip-rule="evenodd" d="M9.28927 2.25058C21.4686 17.0557 40.2453 40.1064 41.1776 41.397C41.9472 42.4626 41.6576 43.4205 40.3391 44.1713C39.6058 44.5888 38.0982 45.0118 37.3434 45.0118C36.4897 45.0118 35.5281 44.6001 34.8277 43.9346C34.3325 43.4644 32.3347 40.4764 27.7224 33.3086C24.1934 27.8242 21.24 23.2746 21.1595 23.1984C20.9732 23.0222 20.9764 23.0282 27.3626 34.4726C31.3726 41.6589 32.7263 44.1996 32.7263 44.5393C32.7263 45.2304 32.5382 45.5936 31.6869 46.5446C30.2679 48.1301 29.6336 49.9116 29.1757 53.5986C28.6622 57.7316 27.2188 60.6512 23.2186 65.6479C20.877 68.5729 20.4938 69.1089 19.903 70.2879C19.1586 71.7724 18.954 72.6039 18.8711 74.4786C18.7835 76.4606 18.9542 77.7411 19.5589 79.6361C20.0881 81.2953 20.6406 82.3907 22.053 84.582C23.272 86.4728 23.974 87.8781 23.974 88.4276C23.974 88.8651 24.0573 88.8656 25.9462 88.4385C30.4663 87.4161 34.1369 85.6179 36.2013 83.4144C37.4788 82.0506 37.7787 81.2974 37.7884 79.4284C37.7948 78.2059 37.7519 77.9499 37.422 77.2466C36.8849 76.1019 35.9071 75.1502 33.752 73.6748C30.9284 71.7414 29.7224 70.185 29.3891 68.0445C29.1158 66.2882 29.433 65.049 30.995 61.77C32.6119 58.3759 33.0125 56.9295 33.2836 53.5084C33.4587 51.2979 33.7011 50.4263 34.3352 49.7267C34.9964 48.9969 35.5917 48.75 37.2283 48.5259C39.8964 48.1609 41.5953 47.4696 42.9918 46.1807C44.2032 45.0626 44.7102 43.9853 44.7881 42.3634L44.8471 41.1341L44.1701 40.3436C41.7184 37.4805 7.64743 0 7.49654 0C7.46432 0 8.27107 1.01283 9.28927 2.25058ZM25.3501 76.7212C25.9045 75.7382 25.61 74.4741 24.6827 73.8566C23.8066 73.2731 22.4456 73.548 22.4456 74.3083C22.4456 74.5403 22.5739 74.7092 22.8625 74.8581C23.3485 75.1086 23.3839 75.3902 23.0014 75.966C22.6141 76.5491 22.6454 77.0618 23.0896 77.4101C23.8057 77.9717 24.8192 77.6629 25.3501 76.7212Z" fill="#FF007A"/>
<path fill-rule="evenodd" clip-rule="evenodd" d="M46.5308 49.1708C45.2784 49.5561 44.0608 50.8856 43.6838 52.2799C43.4539 53.1304 43.5843 54.6223 43.9288 55.083C44.4852 55.8272 45.0232 56.0233 46.4803 56.013C49.3326 55.9931 51.8123 54.7678 52.1006 53.2359C52.337 51.9804 51.2479 50.2403 49.7478 49.4764C48.9737 49.0823 47.3274 48.9259 46.5308 49.1708ZM49.8653 51.7823C50.3053 51.1564 50.1128 50.4797 49.3648 50.0222C47.9401 49.1509 45.7855 49.8718 45.7855 51.2199C45.7855 51.891 46.909 52.623 47.939 52.623C48.6243 52.623 49.5624 52.2137 49.8653 51.7823Z" fill="#FF007A"/>
</svg>
