<svg width="200" height="200" viewBox="0 0 200 200" fill="none" xmlns="http://www.w3.org/2000/svg">
<path d="M70.0574 38.5081C68.2346 38.225 68.1576 38.1916 69.0156 38.0597C70.6596 37.8062 74.5413 38.1516 77.2165 38.7884C83.4615 40.2753 89.1441 44.0841 95.21 50.8481L96.8215 52.6453L99.1267 52.2741C108.839 50.7109 118.719 51.9531 126.982 55.7766C129.256 56.8284 132.84 58.9225 133.288 59.4606C133.431 59.6319 133.693 60.7359 133.87 61.9137C134.484 65.9887 134.177 69.1125 132.932 71.4453C132.255 72.715 132.217 73.1172 132.672 74.2037C133.036 75.0709 134.049 75.7125 135.052 75.7112C137.106 75.7084 139.316 72.3834 140.34 67.7572L140.747 65.9197L141.553 66.8337C145.974 71.85 149.446 78.6909 150.042 83.5603L150.197 84.8297L149.455 83.6756C148.176 81.6897 146.891 80.3375 145.246 79.2472C142.28 77.2816 139.144 76.6128 130.838 76.1744C123.337 75.7784 119.092 75.1369 114.882 73.7619C107.72 71.4231 104.11 68.3084 95.6022 57.1287C91.8234 52.1634 89.4877 49.4159 87.1644 47.2034C81.8852 42.1762 76.6977 39.5397 70.0574 38.5081Z" fill="#FF007A"/>
<path d="M134.98 49.595C135.168 46.2678 135.619 44.0728 136.525 42.0688C136.883 41.2753 137.219 40.6259 137.271 40.6259C137.323 40.6259 137.167 41.2116 136.925 41.9272C136.266 43.8725 136.158 46.5328 136.612 49.6284C137.188 53.5559 137.515 54.1225 141.66 58.3653C143.604 60.3553 145.865 62.865 146.685 63.9425L148.175 65.9019L146.685 64.5016C144.862 62.7894 140.67 59.45 139.744 58.9725C139.123 58.6525 139.031 58.6578 138.648 59.0397C138.295 59.3916 138.221 59.92 138.172 62.4191C138.095 66.3138 137.565 68.8138 136.286 71.3134C135.594 72.6653 135.485 72.3769 136.111 70.8509C136.579 69.7116 136.626 69.2106 136.623 65.44C136.616 57.8647 135.718 56.0434 130.451 52.9234C129.117 52.1331 126.919 50.9931 125.567 50.3903C124.214 49.7875 123.14 49.2622 123.179 49.2231C123.328 49.0744 128.464 50.5756 130.531 51.3719C133.606 52.5566 134.113 52.71 134.487 52.5672C134.737 52.4716 134.858 51.7413 134.98 49.595Z" fill="#FF007A"/>
<path d="M73.5985 62.5547C69.8977 57.4519 67.6081 49.6278 68.1036 43.7791L68.2571 41.9691L69.0992 42.1231C70.6815 42.4122 73.4088 43.4291 74.6861 44.2059C78.191 46.3378 79.7083 49.1447 81.2521 56.3525C81.7042 58.4634 82.2974 60.8525 82.5704 61.6616C83.01 62.9634 84.6705 66.0044 86.0206 67.9794C86.9932 69.4016 86.3473 70.0756 84.1975 69.8812C80.9145 69.5844 76.4674 66.5106 73.5985 62.5547Z" fill="#FF007A"/>
<path d="M130.491 100.533C113.196 93.559 107.105 87.5053 107.105 77.2909C107.105 75.7878 107.157 74.5578 107.219 74.5578C107.282 74.5578 107.952 75.0541 108.706 75.6603C112.213 78.4775 116.141 79.6809 127.013 81.2694C133.41 82.2044 137.011 82.9594 140.332 84.0625C150.888 87.5687 157.419 94.6844 158.976 104.376C159.429 107.192 159.163 112.473 158.429 115.257C157.85 117.455 156.083 121.418 155.614 121.57C155.484 121.612 155.356 121.113 155.323 120.434C155.145 116.795 153.309 113.252 150.225 110.598C146.719 107.58 142.008 105.178 130.491 100.533Z" fill="#FF007A"/>
<path d="M118.349 103.431C118.133 102.139 117.757 100.49 117.514 99.7656L117.073 98.4488L117.893 99.3703C119.027 100.645 119.923 102.277 120.683 104.45C121.263 106.109 121.328 106.602 121.324 109.298C121.319 111.944 121.247 112.499 120.711 113.992C119.867 116.346 118.819 118.015 117.061 119.807C113.902 123.028 109.84 124.81 103.979 125.55C102.96 125.678 99.9906 125.895 97.38 126.031C90.8006 126.373 86.4705 127.082 82.5797 128.45C82.0203 128.647 81.5208 128.766 81.4702 128.716C81.3126 128.559 83.9619 126.977 86.1501 125.921C89.2353 124.433 92.3064 123.621 99.1878 122.473C102.587 121.906 106.098 121.218 106.989 120.944C115.407 118.359 119.734 111.688 118.349 103.431Z" fill="#FF007A"/>
<path d="M126.277 117.533C123.98 112.585 123.452 107.809 124.711 103.354C124.846 102.878 125.062 102.488 125.193 102.488C125.323 102.488 125.865 102.782 126.397 103.141C127.456 103.855 129.58 105.057 135.238 108.147C142.298 112.002 146.323 114.987 149.061 118.398C151.458 121.385 152.942 124.787 153.656 128.935C154.06 131.285 153.823 136.939 153.221 139.306C151.323 146.767 146.911 152.627 140.618 156.047C139.696 156.548 138.869 156.959 138.779 156.961C138.69 156.962 139.026 156.107 139.526 155.06C141.643 150.628 141.884 146.317 140.283 141.518C139.303 138.58 137.305 134.995 133.271 128.936C128.581 121.892 127.431 120.017 126.277 117.533Z" fill="#FF007A"/>
<path d="M61.3164 144.227C67.7345 138.799 75.7198 134.943 82.9941 133.76C86.1289 133.25 91.351 133.452 94.254 134.196C98.9074 135.389 103.07 138.06 105.234 141.243C107.35 144.354 108.258 147.064 109.203 153.096C109.575 155.475 109.981 157.864 110.104 158.405C110.813 161.53 112.194 164.029 113.905 165.283C116.624 167.276 121.304 167.4 125.908 165.601C126.69 165.296 127.368 165.085 127.416 165.133C127.583 165.298 125.265 166.853 123.629 167.671C121.428 168.772 119.678 169.198 117.353 169.198C113.136 169.198 109.635 167.049 106.713 162.668C106.139 161.806 104.846 159.224 103.842 156.93C100.758 149.884 99.2343 147.737 95.6531 145.388C92.5364 143.344 88.517 142.978 85.4933 144.463C81.5214 146.413 80.4131 151.497 83.2581 154.719C84.3885 155.999 86.4971 157.104 88.2212 157.318C91.4465 157.72 94.2184 155.263 94.2184 152.001C94.2184 149.883 93.4056 148.675 91.3598 147.75C88.5654 146.488 85.562 147.963 85.5763 150.593C85.5825 151.714 86.0699 152.418 87.1919 152.926C87.9117 153.253 87.9286 153.278 87.3414 153.156C84.7776 152.624 84.1769 149.528 86.2384 147.473C88.7133 145.006 93.8312 146.094 95.5888 149.462C96.327 150.877 96.4128 153.694 95.7691 155.395C94.3283 159.203 90.1276 161.205 85.8662 160.115C82.9651 159.373 81.7838 158.57 78.2858 154.961C72.2075 148.69 69.8478 147.475 61.0849 146.105L59.4056 145.843L61.3164 144.227Z" fill="#FF007A"/>
<path fill-rule="evenodd" clip-rule="evenodd" d="M15.4821 3.75097C35.781 28.4262 67.0755 66.8441 68.6293 68.995C69.912 70.7709 69.4293 72.3675 67.2318 73.6187C66.0097 74.3147 63.497 75.0197 62.239 75.0197C60.8162 75.0197 59.2134 74.3334 58.0462 73.2244C57.2209 72.4406 53.8911 67.4606 46.2041 55.5144C40.3223 46.3737 35.4 38.7909 35.2658 38.6641C34.9554 38.3703 34.9607 38.3803 45.6044 57.4544C52.2877 69.4316 54.5438 73.6659 54.5438 74.2322C54.5438 75.3841 54.2303 75.9894 52.8115 77.5744C50.4465 80.2169 49.3894 83.1859 48.6262 89.3309C47.7704 96.2194 45.3647 101.085 38.6977 109.413C34.795 114.288 34.1563 115.182 33.1716 117.147C31.931 119.621 31.59 121.007 31.4518 124.131C31.3058 127.434 31.5903 129.568 32.5981 132.727C33.4802 135.492 34.4009 137.318 36.7551 140.97C38.7866 144.121 39.9566 146.463 39.9566 147.379C39.9566 148.108 40.0955 148.109 43.2437 147.397C50.7772 145.693 56.8949 142.697 60.3354 139.024C62.4646 136.751 62.9644 135.496 62.9807 132.381C62.9913 130.343 62.9198 129.917 62.3701 128.744C61.4749 126.837 59.8452 125.25 56.2534 122.791C51.5473 119.569 49.5373 116.975 48.9819 113.407C48.5264 110.48 49.0549 108.415 51.6584 102.95C54.3532 97.2931 55.0209 94.8825 55.4727 89.1806C55.7644 85.4966 56.1685 84.0437 57.2253 82.8778C58.3273 81.6616 59.3195 81.25 62.0471 80.8766C66.4939 80.2681 69.3254 79.1159 71.653 76.9678C73.6721 75.1044 74.517 73.3087 74.6468 70.6056L74.7451 68.5569L73.6169 67.2394C69.5307 62.4675 12.7457 0 12.4942 0C12.4405 0 13.7851 1.68806 15.4821 3.75097ZM42.2502 127.869C43.1741 126.23 42.6833 124.123 41.1379 123.094C39.6777 122.122 37.4094 122.58 37.4094 123.847C37.4094 124.234 37.6231 124.515 38.1042 124.763C38.9142 125.181 38.9732 125.65 38.3357 126.61C37.6902 127.582 37.7423 128.436 38.4827 129.017C39.6761 129.953 41.3654 129.438 42.2502 127.869Z" fill="#FF007A"/>
<path fill-rule="evenodd" clip-rule="evenodd" d="M77.5513 81.9513C75.464 82.5934 73.4346 84.8094 72.8063 87.1331C72.4231 88.5506 72.6406 91.0372 73.2147 91.805C74.142 93.0453 75.0387 93.3722 77.4671 93.355C82.2209 93.3219 86.3538 91.2797 86.8343 88.7266C87.2284 86.6341 85.4131 83.7338 82.913 82.4606C81.6228 81.8038 78.879 81.5431 77.5513 81.9513ZM83.1089 86.3038C83.8421 85.2606 83.5214 84.1328 82.2746 83.3703C79.9002 81.9181 76.3092 83.1197 76.3092 85.3666C76.3092 86.485 78.1816 87.705 79.8983 87.705C81.0406 87.705 82.6041 87.0228 83.1089 86.3038Z" fill="#FF007A"/>
</svg>
